<svg xmlns="http://www.w3.org/2000/svg" id="canvas" viewBox="205.137 154.312 1007.785 303.575"><path d="M 264.91,276.03 C 264.65 274.81, 264.14 272.93, 262.00 271.36 C 259.86 269.79, 258.20 268.46, 254.22 268.18 C 250.24 267.91, 247.22 268.21, 242.10 269.99 C 236.99 271.77, 233.78 273.42, 228.63 277.08 C 223.49 280.74, 220.26 283.47, 216.37 288.29 C 212.48 293.12, 210.60 296.21, 209.18 301.21 C 207.77 306.20, 207.77 309.26, 209.30 313.27 C 210.83 317.28, 212.95 319.11, 216.84 321.26 C 220.73 323.41, 223.71 324.14, 228.76 324.00 C 233.81 323.87, 236.91 322.95, 242.07 320.59 C 247.23 318.23, 249.99 315.99, 254.56 312.21 C 259.14 308.42, 261.19 305.60, 264.93 301.69 C 268.67 297.77, 270.62 295.29, 273.27 292.64 C 275.91 289.98, 276.59 288.81, 278.17 288.41 C 279.75 288.01, 279.38 288.37, 281.16 290.63 C 282.95 292.90, 284.23 294.95, 287.10 299.73 C 289.96 304.50, 291.76 307.74, 295.50 314.52 C 299.24 321.29, 301.58 325.39, 305.80 333.60 C 310.02 341.81, 312.59 346.54, 316.60 355.56 C 320.61 364.58, 322.85 369.69, 325.84 378.70 C 328.82 387.71, 330.18 392.43, 331.55 400.61 C 332.92 408.79, 333.28 412.84, 332.67 419.59 C 332.05 426.35, 331.13 429.32, 328.48 434.37 C 325.82 439.42, 323.94 441.56, 319.40 444.86 C 314.86 448.16, 311.89 449.26, 305.77 450.85 C 299.65 452.43, 295.97 452.96, 288.81 452.79 C 281.66 452.62, 277.33 451.97, 270.00 450.01 C 262.68 448.05, 258.68 446.54, 252.18 443.00 C 245.69 439.46, 242.33 437.11, 237.52 432.32 C 232.71 427.53, 230.76 424.85, 228.14 419.05 C 225.51 413.25, 224.67 409.92, 224.39 403.33 C 224.11 396.73, 224.68 392.94, 226.75 386.07 C 228.82 379.20, 230.59 375.68, 234.73 368.96 C 238.87 362.24, 241.69 358.77, 247.43 352.45 C 253.17 346.13, 256.85 342.92, 263.43 337.36 C 270.02 331.81, 273.68 329.26, 280.35 324.66 C 287.03 320.07, 290.59 318.04, 296.82 314.40 C 303.05 310.76, 306.07 309.13, 311.50 306.45 C 316.93 303.77, 319.45 302.57, 323.98 300.99 C 328.50 299.42, 330.40 298.95, 334.11 298.59 C 337.83 298.23, 339.46 298.44, 342.54 299.19 C 345.62 299.94, 346.70 300.43, 349.51 302.34 C 352.32 304.24, 353.92 305.88, 356.58 308.71 C 359.24 311.54, 360.53 313.38, 362.81 316.49 C 365.09 319.61, 366.24 321.56, 367.98 324.29 C 369.71 327.02, 370.30 328.43, 371.48 330.16 C 372.67 331.89, 373.09 332.31, 373.90 332.92 C 374.72 333.53, 375.12 333.31, 375.54 333.20 C 375.96 333.10, 376.06 332.56, 375.99 332.42 C 375.92 332.27, 375.25 332.40, 375.19 332.46 C 375.13 332.53, 375.50 332.92, 375.69 332.74 C 375.89 332.57, 376.27 332.52, 376.16 331.59 C 376.06 330.65, 376.07 329.99, 375.17 328.06 C 374.27 326.12, 373.50 324.69, 371.65 321.91 C 369.80 319.12, 368.40 317.28, 365.93 314.13 C 363.46 310.97, 362.17 309.09, 359.29 306.12 C 356.41 303.15, 354.72 301.33, 351.52 299.29 C 348.32 297.24, 346.84 296.61, 343.29 295.87 C 339.73 295.14, 337.80 295.05, 333.76 295.60 C 329.73 296.15, 327.75 296.84, 323.11 298.62 C 318.46 300.41, 315.98 301.71, 310.53 304.54 C 305.08 307.37, 302.09 309.04, 295.86 312.78 C 289.63 316.52, 286.07 318.57, 279.36 323.22 C 272.65 327.88, 268.97 330.45, 262.33 336.06 C 255.69 341.67, 251.98 344.90, 246.15 351.28 C 240.32 357.67, 237.43 361.16, 233.18 368.00 C 228.93 374.85, 227.06 378.43, 224.90 385.51 C 222.75 392.59, 222.12 396.54, 222.40 403.41 C 222.69 410.28, 223.58 413.81, 226.33 419.87 C 229.08 425.93, 231.16 428.74, 236.15 433.70 C 241.13 438.67, 244.59 441.06, 251.26 444.70 C 257.93 448.34, 261.99 449.88, 269.49 451.90 C 276.99 453.93, 281.40 454.64, 288.76 454.84 C 296.12 455.05, 299.93 454.58, 306.31 452.92 C 312.69 451.27, 315.88 450.12, 320.67 446.59 C 325.46 443.07, 327.50 440.66, 330.26 435.30 C 333.02 429.93, 333.89 426.74, 334.47 419.75 C 335.05 412.76, 334.60 408.64, 333.16 400.33 C 331.73 392.02, 330.33 387.29, 327.31 378.21 C 324.29 369.13, 322.04 364.00, 318.05 354.92 C 314.06 345.84, 311.50 341.09, 307.38 332.80 C 303.26 324.51, 301.02 320.37, 297.45 313.47 C 293.88 306.58, 292.30 303.32, 289.54 298.32 C 286.79 293.31, 286.03 290.94, 283.66 288.45 C 281.29 285.96, 280.23 285.48, 277.69 285.85 C 275.16 286.22, 273.97 287.52, 271.00 290.30 C 268.03 293.08, 266.49 295.78, 262.86 299.75 C 259.23 303.73, 257.25 306.50, 252.87 310.17 C 248.48 313.83, 245.77 315.90, 240.93 318.09 C 236.10 320.27, 233.22 320.98, 228.68 321.10 C 224.14 321.22, 221.58 320.45, 218.23 318.69 C 214.87 316.92, 213.20 315.62, 211.90 312.27 C 210.60 308.92, 210.43 306.41, 211.73 301.94 C 213.02 297.47, 214.69 294.45, 218.38 289.92 C 222.08 285.40, 225.26 282.70, 230.20 279.32 C 235.14 275.95, 238.36 274.46, 243.10 273.04 C 247.83 271.62, 250.54 271.84, 253.86 272.21 C 257.18 272.58, 257.82 273.84, 259.71 274.89 C 261.60 275.94, 262.28 277.23, 263.32 277.46 C 264.36 277.69, 265.17 277.25, 264.91 276.03" style="stroke: white; fill: white;"/><path d="M 326.59,236.51 C 326.86 236.92, 326.59 237.01, 326.86 237.62 C 327.14 238.22, 327.32 239.55, 327.96 239.54 C 328.61 239.53, 329.66 238.76, 330.10 237.57 C 330.54 236.39, 330.62 234.81, 330.17 233.61 C 329.71 232.41, 328.69 231.55, 327.83 231.56 C 326.98 231.58, 326.35 232.90, 325.89 233.69 C 325.42 234.48, 325.37 234.95, 325.51 235.52 C 325.65 236.08, 326.32 236.09, 326.59 236.51" style="stroke: white; fill: white;"/><path d="M 439.04,281.92 C 438.36 281.11, 437.56 280.23, 435.19 279.74 C 432.81 279.24, 430.97 278.99, 427.16 279.43 C 423.34 279.88, 420.59 280.36, 416.12 281.97 C 411.64 283.57, 408.75 284.77, 404.78 287.45 C 400.81 290.14, 398.62 291.94, 396.26 295.38 C 393.91 298.82, 392.72 301.06, 393.02 304.66 C 393.32 308.25, 394.62 310.54, 397.76 313.37 C 400.91 316.20, 403.56 317.42, 408.75 318.82 C 413.94 320.23, 417.29 320.53, 423.72 320.40 C 430.15 320.27, 434.11 319.66, 440.90 318.17 C 447.70 316.69, 451.64 315.55, 457.67 312.97 C 463.71 310.39, 466.67 308.65, 471.09 305.27 C 475.50 301.89, 477.34 299.78, 479.75 296.09 C 482.16 292.40, 482.85 290.43, 483.15 286.83 C 483.45 283.22, 482.68 281.05, 481.25 278.07 C 479.83 275.08, 478.17 273.68, 476.04 271.91 C 473.92 270.15, 472.46 269.81, 470.63 269.25 C 468.80 268.68, 467.75 268.82, 466.91 269.08 C 466.06 269.34, 465.99 269.87, 466.41 270.56 C 466.83 271.25, 467.69 271.52, 468.99 272.52 C 470.30 273.52, 471.22 274.05, 472.94 275.56 C 474.65 277.06, 476.19 277.83, 477.55 280.05 C 478.92 282.27, 479.79 283.74, 479.75 286.65 C 479.70 289.55, 479.38 291.23, 477.34 294.56 C 475.30 297.90, 473.68 300.05, 469.56 303.31 C 465.45 306.57, 462.59 308.34, 456.76 310.86 C 450.93 313.38, 447.03 314.50, 440.42 315.90 C 433.80 317.30, 429.86 317.83, 423.68 317.86 C 417.51 317.89, 414.29 317.41, 409.53 316.03 C 404.78 314.65, 402.54 313.29, 399.91 310.97 C 397.28 308.64, 396.56 307.13, 396.39 304.41 C 396.22 301.68, 397.00 300.17, 399.06 297.36 C 401.12 294.55, 403.05 292.72, 406.71 290.38 C 410.36 288.03, 413.15 286.91, 417.34 285.63 C 421.52 284.35, 424.15 284.29, 427.63 283.98 C 431.11 283.67, 432.56 284.12, 434.75 284.09 C 436.94 284.05, 437.72 284.22, 438.58 283.79 C 439.44 283.36, 439.72 282.73, 439.04 281.92" style="stroke: white; fill: white;"/><path d="M 505.61,273.17 C 505.63 274.38, 505.81 275.67, 507.33 278.19 C 508.85 280.70, 510.38 282.27, 513.22 285.73 C 516.06 289.19, 518.08 291.76, 521.53 295.49 C 524.97 299.21, 526.98 301.32, 530.44 304.35 C 533.90 307.37, 535.58 308.71, 538.84 310.61 C 542.10 312.51, 543.74 313.40, 546.75 313.86 C 549.76 314.33, 551.34 314.15, 553.90 312.93 C 556.46 311.72, 557.70 310.51, 559.56 307.79 C 561.43 305.07, 562.17 303.12, 563.21 299.31 C 564.25 295.51, 564.39 292.99, 564.77 288.77 C 565.14 284.56, 564.88 281.99, 565.09 278.24 C 565.30 274.49, 565.47 272.72, 565.82 270.01 C 566.17 267.29, 566.36 266.22, 566.83 264.65 C 567.29 263.09, 567.69 262.80, 568.13 262.17 C 568.58 261.54, 568.63 261.60, 569.05 261.50 C 569.48 261.40, 569.88 261.97, 570.26 261.67 C 570.64 261.38, 571.23 260.59, 570.96 260.02 C 570.68 259.44, 569.90 258.84, 568.90 258.82 C 567.90 258.80, 567.09 259.03, 565.96 259.91 C 564.83 260.79, 564.19 261.33, 563.26 263.22 C 562.33 265.12, 561.75 266.41, 561.31 269.38 C 560.87 272.36, 561.17 274.27, 561.07 278.08 C 560.97 281.88, 561.20 284.39, 560.82 288.41 C 560.44 292.43, 560.17 294.78, 559.17 298.17 C 558.17 301.56, 557.22 303.07, 555.82 305.34 C 554.42 307.62, 553.87 308.60, 552.18 309.53 C 550.50 310.45, 549.70 310.38, 547.39 309.97 C 545.07 309.57, 543.56 309.12, 540.61 307.49 C 537.66 305.87, 535.94 304.70, 532.64 301.83 C 529.35 298.95, 527.42 296.83, 524.15 293.12 C 520.89 289.41, 518.96 286.77, 516.31 283.28 C 513.66 279.80, 512.71 277.91, 510.90 275.68 C 509.09 273.45, 508.32 272.64, 507.26 272.14 C 506.21 271.63, 505.60 271.96, 505.61 273.17" style="stroke: white; fill: white;"/><path d="M 641.88,267.86 C 641.95 266.90, 642.00 265.65, 640.61 264.14 C 639.22 262.63, 637.98 261.10, 634.92 260.30 C 631.85 259.50, 629.68 259.44, 625.30 260.15 C 620.91 260.85, 617.96 261.62, 613.01 263.83 C 608.06 266.04, 604.98 267.89, 600.54 271.19 C 596.10 274.50, 593.83 276.67, 590.81 280.34 C 587.80 284.02, 586.45 286.05, 585.49 289.56 C 584.52 293.08, 584.54 295.21, 585.98 297.91 C 587.42 300.60, 589.34 301.85, 592.68 303.05 C 596.03 304.25, 598.53 304.24, 602.70 303.90 C 606.88 303.57, 609.23 303.00, 613.56 301.36 C 617.89 299.72, 620.35 298.29, 624.34 295.69 C 628.34 293.08, 630.36 291.14, 633.54 288.33 C 636.73 285.53, 638.17 283.83, 640.26 281.66 C 642.36 279.49, 642.91 278.20, 644.03 277.49 C 645.16 276.78, 644.83 276.90, 645.91 278.09 C 646.99 279.28, 647.54 280.85, 649.45 283.46 C 651.35 286.07, 652.76 288.03, 655.46 291.13 C 658.16 294.24, 659.79 296.16, 662.94 298.98 C 666.08 301.79, 667.92 303.34, 671.18 305.20 C 674.44 307.06, 676.06 307.84, 679.25 308.28 C 682.44 308.73, 684.20 308.53, 687.13 307.44 C 690.06 306.34, 691.41 305.11, 693.90 302.83 C 696.40 300.55, 697.54 298.87, 699.60 296.01 C 701.67 293.16, 702.62 291.20, 704.25 288.58 C 705.87 285.95, 706.47 284.58, 707.72 282.90 C 708.98 281.21, 709.33 280.44, 710.52 280.16 C 711.71 279.89, 712.01 280.32, 713.66 281.54 C 715.30 282.76, 716.34 284.14, 718.73 286.27 C 721.12 288.40, 722.77 289.88, 725.60 292.19 C 728.42 294.50, 729.99 295.84, 732.86 297.81 C 735.73 299.78, 737.11 300.97, 739.95 302.05 C 742.79 303.12, 744.27 303.30, 747.06 303.17 C 749.85 303.04, 751.18 302.57, 753.89 301.41 C 756.59 300.25, 757.95 299.28, 760.60 297.37 C 763.24 295.46, 764.46 293.86, 767.09 291.85 C 769.72 289.83, 771.08 288.57, 773.75 287.30 C 776.42 286.03, 777.66 285.68, 780.43 285.49 C 783.20 285.31, 784.45 285.53, 787.60 286.38 C 790.74 287.22, 792.50 288.10, 796.16 289.71 C 799.82 291.33, 801.97 292.62, 805.88 294.43 C 809.79 296.24, 811.83 297.22, 815.72 298.76 C 819.62 300.30, 821.54 301.00, 825.34 302.13 C 829.14 303.26, 831.04 303.86, 834.72 304.40 C 838.39 304.94, 840.25 305.20, 843.70 304.82 C 847.16 304.45, 848.99 304.03, 852.01 302.54 C 855.03 301.05, 856.46 299.76, 858.82 297.38 C 861.19 294.99, 862.14 293.34, 863.84 290.61 C 865.54 287.87, 866.37 286.14, 867.32 283.69 C 868.27 281.25, 868.06 279.61, 868.59 278.39 C 869.13 277.17, 868.87 277.08, 870.00 277.58 C 871.14 278.08, 871.85 279.12, 874.26 280.89 C 876.66 282.65, 878.50 283.91, 882.03 286.40 C 885.56 288.90, 887.78 290.64, 891.90 293.35 C 896.01 296.06, 898.37 297.71, 902.59 299.95 C 906.81 302.19, 909.16 303.66, 913.00 304.56 C 916.84 305.46, 918.99 305.20, 921.79 304.44 C 924.60 303.68, 925.66 302.41, 927.03 300.75 C 928.41 299.10, 928.67 297.27, 928.67 296.19 C 928.67 295.11, 927.83 294.88, 927.03 295.33 C 926.22 295.79, 925.89 297.39, 924.65 298.45 C 923.41 299.51, 922.98 300.11, 920.81 300.63 C 918.64 301.14, 917.13 301.75, 913.80 301.03 C 910.46 300.30, 908.14 299.11, 904.15 297.01 C 900.15 294.90, 897.77 293.27, 893.84 290.50 C 889.90 287.73, 887.85 285.88, 884.47 283.17 C 881.09 280.46, 879.72 278.71, 876.95 276.95 C 874.18 275.18, 872.85 274.48, 870.63 274.33 C 868.41 274.18, 867.45 274.75, 865.85 276.20 C 864.25 277.65, 863.85 279.18, 862.63 281.58 C 861.40 283.98, 861.13 285.65, 859.73 288.19 C 858.32 290.74, 857.54 292.20, 855.61 294.31 C 853.68 296.43, 852.57 297.46, 850.09 298.76 C 847.62 300.06, 846.21 300.44, 843.24 300.82 C 840.26 301.20, 838.61 301.07, 835.23 300.65 C 831.85 300.23, 829.98 299.74, 826.33 298.71 C 822.69 297.68, 820.80 297.02, 817.01 295.51 C 813.23 294.01, 811.27 293.02, 807.41 291.18 C 803.55 289.33, 801.46 287.99, 797.71 286.27 C 793.96 284.55, 792.15 283.56, 788.65 282.57 C 785.15 281.58, 783.55 281.18, 780.21 281.32 C 776.86 281.47, 775.11 281.93, 771.94 283.30 C 768.77 284.67, 767.18 286.12, 764.36 288.17 C 761.53 290.21, 760.29 291.71, 757.80 293.51 C 755.32 295.30, 754.11 296.04, 751.92 297.14 C 749.72 298.24, 748.89 298.88, 746.83 299.02 C 744.77 299.15, 743.92 298.81, 741.63 297.84 C 739.35 296.86, 738.01 295.98, 735.41 294.14 C 732.80 292.30, 731.27 290.96, 728.59 288.64 C 725.92 286.31, 724.57 284.69, 722.03 282.50 C 719.49 280.31, 718.32 278.81, 715.88 277.68 C 713.44 276.54, 712.11 276.39, 709.82 276.84 C 707.54 277.29, 706.39 278.11, 704.46 279.94 C 702.53 281.78, 701.89 283.33, 700.17 286.01 C 698.45 288.69, 697.73 290.65, 695.86 293.37 C 693.99 296.08, 692.88 297.55, 690.82 299.57 C 688.76 301.58, 687.77 302.52, 685.57 303.45 C 683.36 304.37, 682.30 304.52, 679.81 304.19 C 677.32 303.86, 675.97 303.42, 673.12 301.80 C 670.27 300.18, 668.45 298.78, 665.58 296.09 C 662.72 293.40, 661.27 291.48, 658.79 288.36 C 656.32 285.25, 655.37 283.13, 653.21 280.52 C 651.05 277.91, 650.04 276.47, 647.97 275.32 C 645.90 274.17, 644.99 274.09, 642.87 274.77 C 640.75 275.44, 639.71 276.51, 637.36 278.70 C 635.02 280.89, 634.11 282.88, 631.14 285.71 C 628.17 288.55, 626.27 290.42, 622.51 292.89 C 618.75 295.37, 616.37 296.65, 612.35 298.08 C 608.33 299.52, 606.11 299.85, 602.42 300.08 C 598.74 300.32, 596.61 300.02, 593.92 299.25 C 591.23 298.49, 590.01 297.99, 588.99 296.24 C 587.96 294.49, 587.93 293.30, 588.78 290.52 C 589.63 287.73, 590.52 285.68, 593.23 282.31 C 595.94 278.93, 598.13 276.72, 602.34 273.63 C 606.55 270.53, 609.60 268.73, 614.29 266.82 C 618.97 264.92, 621.92 264.38, 625.77 264.10 C 629.62 263.82, 631.12 264.75, 633.56 265.41 C 635.99 266.07, 636.60 266.70, 637.94 267.41 C 639.28 268.12, 639.46 268.88, 640.25 268.97 C 641.03 269.06, 641.80 268.83, 641.88 267.86" style="stroke: white; fill: white;"/><path d="M 882.31,216.82 C 883.25 216.71, 884.17 215.95, 884.84 215.12 C 885.52 214.30, 885.48 213.62, 885.68 212.69 C 885.88 211.76, 886.13 211.19, 885.83 210.47 C 885.53 209.75, 885.03 209.15, 884.17 209.09 C 883.32 209.03, 882.38 209.44, 881.56 210.17 C 880.74 210.91, 880.37 211.65, 880.08 212.75 C 879.80 213.84, 879.70 214.83, 880.14 215.65 C 880.59 216.46, 881.37 216.92, 882.31 216.82" style="stroke: white; fill: white;"/><path d="M 1084.36,230.76 C 1085.52 229.94, 1086.47 228.51, 1088.39 225.64 C 1090.32 222.77, 1091.83 220.74, 1093.99 216.40 C 1096.15 212.06, 1097.70 209.04, 1099.19 203.93 C 1100.69 198.83, 1101.34 196.03, 1101.46 190.87 C 1101.59 185.72, 1101.30 182.88, 1099.83 178.16 C 1098.36 173.44, 1097.10 170.93, 1094.12 167.28 C 1091.15 163.63, 1089.06 161.89, 1084.95 159.91 C 1080.84 157.92, 1078.26 157.12, 1073.59 157.35 C 1068.91 157.57, 1066.14 158.22, 1061.57 161.03 C 1056.99 163.84, 1054.40 165.98, 1050.70 171.41 C 1047.00 176.85, 1045.20 180.38, 1043.07 188.20 C 1040.95 196.02, 1040.25 200.84, 1040.07 210.52 C 1039.89 220.20, 1040.37 225.84, 1042.18 236.60 C 1043.98 247.36, 1045.68 253.28, 1049.10 264.31 C 1052.52 275.35, 1054.97 281.14, 1059.27 291.78 C 1063.57 302.42, 1066.23 307.75, 1070.59 317.52 C 1074.94 327.30, 1077.36 332.35, 1081.05 340.67 C 1084.75 348.98, 1086.50 352.86, 1089.06 359.12 C 1091.62 365.38, 1092.51 368.42, 1093.86 371.96 C 1095.21 375.50, 1095.47 376.20, 1095.82 376.81 C 1096.17 377.42, 1096.67 376.69, 1095.62 375.00 C 1094.57 373.32, 1092.19 369.22, 1090.56 368.40 C 1088.94 367.59, 1086.97 369.10, 1087.49 370.91 C 1088.02 372.73, 1091.28 376.27, 1093.19 377.48 C 1095.09 378.70, 1096.37 378.26, 1097.00 376.98 C 1097.63 375.70, 1097.57 374.80, 1096.33 371.08 C 1095.09 367.36, 1093.58 364.58, 1090.80 358.37 C 1088.02 352.17, 1086.22 348.32, 1082.43 340.05 C 1078.63 331.77, 1076.20 326.72, 1071.81 316.98 C 1067.41 307.23, 1064.75 301.91, 1060.46 291.30 C 1056.17 280.69, 1053.73 274.91, 1050.36 263.92 C 1046.98 252.94, 1045.31 247.04, 1043.57 236.37 C 1041.84 225.70, 1041.41 220.09, 1041.68 210.56 C 1041.94 201.03, 1042.72 196.28, 1044.90 188.71 C 1047.07 181.14, 1048.95 177.79, 1052.56 172.70 C 1056.16 167.62, 1058.70 165.78, 1062.93 163.30 C 1067.16 160.81, 1069.57 160.40, 1073.71 160.27 C 1077.84 160.13, 1080.00 160.85, 1083.62 162.63 C 1087.24 164.41, 1089.12 165.89, 1091.82 169.16 C 1094.51 172.44, 1095.74 174.69, 1097.09 179.02 C 1098.44 183.34, 1098.76 185.99, 1098.57 190.78 C 1098.39 195.58, 1097.71 198.20, 1096.17 203.00 C 1094.62 207.80, 1093.05 210.65, 1090.85 214.78 C 1088.64 218.91, 1086.79 220.66, 1085.14 223.65 C 1083.48 226.63, 1082.73 228.28, 1082.58 229.71 C 1082.42 231.13, 1083.20 231.57, 1084.36 230.76" style="stroke: white; fill: white;"/><path d="M 1027.82,304.97 C 1029.29 304.97, 1030.39 304.44, 1034.62 303.25 C 1038.84 302.07, 1041.93 300.97, 1048.94 299.03 C 1055.95 297.09, 1060.87 296.12, 1069.66 293.55 C 1078.46 290.99, 1083.75 289.64, 1092.91 286.22 C 1102.06 282.80, 1106.94 280.98, 1115.43 276.46 C 1123.92 271.93, 1128.23 269.33, 1135.34 263.59 C 1142.46 257.85, 1145.83 254.45, 1151.01 247.76 C 1156.18 241.07, 1158.39 237.19, 1161.21 230.12 C 1164.04 223.05, 1164.81 219.09, 1165.13 212.39 C 1165.46 205.70, 1164.65 202.18, 1162.83 196.65 C 1161.02 191.12, 1159.32 188.51, 1156.06 184.74 C 1152.80 180.98, 1150.56 179.44, 1146.53 177.82 C 1142.50 176.20, 1139.80 175.89, 1135.92 176.64 C 1132.04 177.38, 1129.85 178.46, 1127.15 181.54 C 1124.45 184.63, 1123.40 187.00, 1122.42 192.05 C 1121.45 197.10, 1121.33 200.34, 1122.28 206.80 C 1123.23 213.25, 1124.22 217.10, 1127.19 224.31 C 1130.15 231.51, 1132.47 235.63, 1137.08 242.82 C 1141.69 250.01, 1144.40 253.62, 1150.23 260.26 C 1156.06 266.90, 1159.52 270.22, 1166.23 276.03 C 1172.94 281.84, 1177.36 284.78, 1183.77 289.32 C 1190.17 293.86, 1193.40 295.73, 1198.25 298.71 C 1203.10 301.69, 1205.89 303.41, 1208.01 304.22 C 1210.13 305.03, 1210.60 304.20, 1208.85 302.77 C 1207.10 301.34, 1204.07 300.06, 1199.27 297.06 C 1194.47 294.07, 1191.22 292.26, 1184.84 287.80 C 1178.45 283.33, 1174.00 280.48, 1167.33 274.75 C 1160.67 269.02, 1157.24 265.73, 1151.50 259.15 C 1145.75 252.57, 1143.09 248.97, 1138.61 241.85 C 1134.13 234.73, 1131.88 230.62, 1129.09 223.54 C 1126.31 216.46, 1125.45 212.65, 1124.67 206.47 C 1123.90 200.28, 1124.24 197.18, 1125.21 192.62 C 1126.19 188.05, 1127.28 186.21, 1129.55 183.66 C 1131.81 181.10, 1133.36 180.45, 1136.53 179.84 C 1139.71 179.23, 1141.92 179.28, 1145.44 180.61 C 1148.96 181.94, 1151.06 183.12, 1154.11 186.47 C 1157.17 189.82, 1158.89 192.20, 1160.69 197.37 C 1162.50 202.54, 1163.38 205.89, 1163.15 212.31 C 1162.93 218.73, 1162.25 222.58, 1159.56 229.47 C 1156.88 236.36, 1154.75 240.18, 1149.72 246.77 C 1144.68 253.35, 1141.38 256.73, 1134.38 262.40 C 1127.38 268.07, 1123.12 270.65, 1114.72 275.12 C 1106.31 279.58, 1101.46 281.38, 1092.35 284.70 C 1083.23 288.02, 1077.95 289.31, 1069.14 291.72 C 1060.34 294.13, 1055.40 294.98, 1048.34 296.76 C 1041.28 298.53, 1038.05 299.29, 1033.83 300.58 C 1029.61 301.88, 1028.45 302.35, 1027.25 303.23 C 1026.05 304.11, 1026.34 304.96, 1027.82 304.97" style="stroke: white; fill: white;"/></svg>